<svg xmlns="http://www.w3.org/2000/svg" width="400" height="400" viewBox="0 0 400 400">
  <!-- Definições -->
  <defs>
    <!-- Padrão de grama -->
    <pattern id="grass" x="0" y="0" width="100" height="100" patternUnits="userSpaceOnUse">
      <rect width="100" height="100" fill="#7ec850"/>
      <rect x="0" y="0" width="50" height="50" fill="#5caa1f" opacity="0.15"/>
      <rect x="50" y="50" width="50" height="50" fill="#5caa1f" opacity="0.15"/>
      <circle cx="20" cy="30" r="2" fill="#4a9020" opacity="0.3"/>
      <circle cx="65" cy="75" r="2" fill="#4a9020" opacity="0.3"/>
      <circle cx="80" cy="20" r="2" fill="#4a9020" opacity="0.3"/>
      <circle cx="35" cy="85" r="2" fill="#4a9020" opacity="0.3"/>
    </pattern>

    <!-- Padrão de terra cultivada -->
    <pattern id="soil" x="0" y="0" width="100" height="100" patternUnits="userSpaceOnUse">
      <rect width="100" height="100" fill="#8b6914"/>
      <rect x="5" y="5" width="90" height="20" fill="#a0522d" opacity="0.4"/>
      <rect x="5" y="30" width="90" height="20" fill="#a0522d" opacity="0.4"/>
      <rect x="5" y="55" width="90" height="20" fill="#a0522d" opacity="0.4"/>
      <rect x="5" y="80" width="90" height="20" fill="#a0522d" opacity="0.4"/>
      <circle cx="15" cy="15" r="1.5" fill="#654321" opacity="0.5"/>
      <circle cx="45" cy="40" r="1.5" fill="#654321" opacity="0.5"/>
      <circle cx="75" cy="65" r="1.5" fill="#654321" opacity="0.5"/>
      <circle cx="25" cy="90" r="1.5" fill="#654321" opacity="0.5"/>
      <circle cx="85" cy="25" r="1.5" fill="#654321" opacity="0.5"/>
    </pattern>

    <!-- Gradiente do céu -->
    <linearGradient id="sky" x1="0%" y1="0%" x2="0%" y2="100%">
      <stop offset="0%" style="stop-color:#87ceeb;stop-opacity:1" />
      <stop offset="50%" style="stop-color:#b0e0f6;stop-opacity:1" />
      <stop offset="100%" style="stop-color:#e8f5e0;stop-opacity:1" />
    </linearGradient>

    <!-- Nuvem -->
    <g id="cloud">
      <ellipse cx="0" cy="0" rx="25" ry="15" fill="white" opacity="0.8"/>
      <ellipse cx="-15" cy="0" rx="20" ry="12" fill="white" opacity="0.8"/>
      <ellipse cx="15" cy="0" rx="20" ry="12" fill="white" opacity="0.8"/>
      <ellipse cx="-7" cy="-8" rx="15" ry="10" fill="white" opacity="0.8"/>
      <ellipse cx="7" cy="-8" rx="15" ry="10" fill="white" opacity="0.8"/>
    </g>
  </defs>

  <!-- Céu -->
  <rect width="400" height="200" fill="url(#sky)"/>

  <!-- Nuvens -->
  <use href="#cloud" x="80" y="50" opacity="0.6"/>
  <use href="#cloud" x="250" y="80" opacity="0.5"/>
  <use href="#cloud" x="350" y="40" opacity="0.7"/>

  <!-- Campo (parte de cima - grama) -->
  <rect y="200" width="400" height="100" fill="url(#grass)"/>

  <!-- Terra cultivada (parte de baixo) -->
  <rect y="300" width="400" height="100" fill="url(#soil)"/>

  <!-- Linha de separação suave -->
  <rect y="298" width="400" height="4" fill="#5caa1f" opacity="0.3"/>

  <!-- Detalhes decorativos - plantinhas -->
  <g opacity="0.4">
    <path d="M 30 290 L 30 280 L 25 285 M 30 280 L 35 285" stroke="#4a9020" stroke-width="1.5" fill="none"/>
    <path d="M 120 295 L 120 285 L 115 290 M 120 285 L 125 290" stroke="#4a9020" stroke-width="1.5" fill="none"/>
    <path d="M 250 292 L 250 282 L 245 287 M 250 282 L 255 287" stroke="#4a9020" stroke-width="1.5" fill="none"/>
    <path d="M 370 288 L 370 278 L 365 283 M 370 278 L 375 283" stroke="#4a9020" stroke-width="1.5" fill="none"/>
  </g>

  <!-- Textura sutil -->
  <rect width="400" height="400" fill="white" opacity="0.02"/>
</svg>
